# Blender v2.79 (sub 0) OBJ File: ''
# www.blender.org
mtllib kelp_6.mtl
o Plane.001_Plane.002
v 0.005000 0.500000 0.495000
v 0.005000 0.500000 -0.505000
v 0.005000 1.500000 0.495000
v 0.005000 1.500000 -0.505000
v -0.497500 0.500000 -0.002500
v 0.502500 0.500000 -0.002500
v -0.497500 1.500000 -0.002500
v 0.502500 1.500000 -0.002500
v 0.501006 0.501001 -0.501005
v 0.501006 -0.501000 -0.501005
v 0.501006 0.501001 0.501006
v 0.501006 -0.501000 0.501005
v -0.501006 0.501001 -0.501005
v -0.501006 -0.501000 -0.501005
v -0.501006 0.501001 0.501006
v -0.501006 -0.501000 0.501005
v 0.005000 1.500000 0.495000
v 0.005000 1.500000 -0.505000
v 0.005000 2.500000 0.495000
v 0.005000 2.500000 -0.505000
v -0.497500 1.500000 -0.002500
v 0.502500 1.500000 -0.002500
v -0.497500 2.500000 -0.002500
v 0.502500 2.500000 -0.002500
v 0.005000 2.500000 0.495000
v 0.005000 2.500000 -0.505000
v 0.005000 3.500000 0.495000
v 0.005000 3.500000 -0.505000
v -0.497500 2.500000 -0.002500
v 0.502500 2.500000 -0.002500
v -0.497500 3.500000 -0.002500
v 0.502500 3.500000 -0.002500
v 0.005000 4.500000 0.495000
v 0.005000 4.500000 -0.505000
v 0.005000 5.500000 0.495000
v 0.005000 5.500000 -0.505000
v -0.497500 4.500000 -0.002500
v 0.502500 4.500000 -0.002500
v -0.497500 5.500000 -0.002500
v 0.502500 5.500000 -0.002500
v 0.005000 3.500000 0.495000
v 0.005000 3.500000 -0.505000
v 0.005000 4.500000 0.495000
v 0.005000 4.500000 -0.505000
v -0.497500 3.500000 -0.002500
v 0.502500 3.500000 -0.002500
v -0.497500 4.500000 -0.002500
v 0.502500 4.500000 -0.002500
v 0.005000 5.500000 0.495000
v 0.005000 5.500000 -0.505000
v 0.005000 6.500000 0.495000
v 0.005000 6.500000 -0.505000
v -0.497500 5.500000 -0.002500
v 0.502500 5.500000 -0.002500
v -0.497500 6.500000 -0.002500
v 0.502500 6.500000 -0.002500
vt 0.000000 0.000000
vt 0.000000 1.000000
vt 1.000000 1.000000
vt 1.000000 0.000000
vt 0.000000 0.000000
vt 1.000000 0.000000
vt 1.000000 1.000000
vt 0.000000 1.000000
vt 0.000000 0.000000
vt 0.000000 1.000000
vt 1.000000 1.000000
vt 1.000000 0.000000
vt 0.000000 0.000000
vt 1.000000 0.000000
vt 1.000000 1.000000
vt 0.000000 1.000000
vt 0.000000 0.000000
vt 0.000000 1.000000
vt 1.000000 1.000000
vt 1.000000 0.000000
vt 0.000000 0.000000
vt 1.000000 0.000000
vt 1.000000 1.000000
vt 0.000000 1.000000
vt 0.000000 0.000000
vt 0.000000 1.000000
vt 1.000000 1.000000
vt 1.000000 0.000000
vt 0.000000 0.000000
vt 1.000000 0.000000
vt 1.000000 1.000000
vt 0.000000 1.000000
vt 0.000000 0.000000
vt 0.000000 1.000000
vt 1.000000 1.000000
vt 1.000000 0.000000
vt 0.000000 0.000000
vt 1.000000 0.000000
vt 1.000000 1.000000
vt 0.000000 1.000000
vt 0.000000 0.000000
vt 0.000000 1.000000
vt 1.000000 1.000000
vt 1.000000 0.000000
vt 0.000000 0.000000
vt 1.000000 0.000000
vt 1.000000 1.000000
vt 0.000000 1.000000
vt 0.000000 0.000000
vt 1.000000 0.000000
vt 1.000000 1.000000
vt 0.000000 1.000000
vt 0.000000 0.000000
vt 1.000000 0.000000
vt 1.000000 1.000000
vt 0.000000 1.000000
vt 0.000000 0.000000
vt 1.000000 0.000000
vt 0.000000 0.000000
vt 1.000000 0.000000
vt 1.000000 1.000000
vt 0.000000 1.000000
vt 1.000000 1.000000
vt 0.000000 1.000000
vt 0.000000 0.000000
vt 1.000000 0.000000
vt 1.000000 1.000000
vt 0.000000 1.000000
vn -1.0000 0.0000 0.0000
vn 0.0000 -0.0000 1.0000
vn 0.0000 1.0000 0.0000
vn 0.0000 -1.0000 0.0000
vn 1.0000 -0.0000 0.0000
vn 0.0000 0.0000 -1.0000
g Plane.001_Plane.002_plant
usemtl plant
s off
f 1/1/1 3/2/1 4/3/1 2/4/1
f 5/5/2 6/6/2 8/7/2 7/8/2
f 17/9/1 19/10/1 20/11/1 18/12/1
f 21/13/2 22/14/2 24/15/2 23/16/2
f 25/17/1 27/18/1 28/19/1 26/20/1
f 29/21/2 30/22/2 32/23/2 31/24/2
f 33/25/1 35/26/1 36/27/1 34/28/1
f 37/29/2 38/30/2 40/31/2 39/32/2
f 41/33/1 43/34/1 44/35/1 42/36/1
f 45/37/2 46/38/2 48/39/2 47/40/2
f 49/41/1 51/42/1 52/43/1 50/44/1
f 53/45/2 54/46/2 56/47/2 55/48/2
g Plane.001_Plane.002_sand
usemtl sand
f 9/49/3 13/50/3 15/51/3 11/52/3
f 14/53/4 10/54/4 12/55/4 16/56/4
f 12/57/2 11/58/2 15/51/2 16/56/2
f 10/59/5 9/60/5 11/61/5 12/62/5
f 14/53/6 13/50/6 9/63/6 10/64/6
f 16/65/1 15/66/1 13/67/1 14/68/1
