# Blender v2.79 (sub 0) OBJ File: ''
# www.blender.org
mtllib waterplant.mtl
o Plane.001_Plane.002
v 0.005000 0.500000 0.495000
v 0.005000 0.500000 -0.505000
v 0.005000 1.500000 0.495000
v 0.005000 1.500000 -0.505000
v -0.497500 0.500000 -0.002500
v 0.502500 0.500000 -0.002500
v -0.497500 1.500000 -0.002500
v 0.502500 1.500000 -0.002500
v 0.500505 0.500500 -0.500505
v 0.500505 -0.500500 -0.500505
v 0.500505 0.500500 0.500505
v 0.500505 -0.500500 0.500505
v -0.500505 0.500500 -0.500505
v -0.500505 -0.500500 -0.500505
v -0.500505 0.500500 0.500505
v -0.500505 -0.500500 0.500505
vt 0.000000 0.000000
vt 0.000000 1.000000
vt 1.000000 1.000000
vt 1.000000 0.000000
vt 0.000000 0.000000
vt 1.000000 0.000000
vt 1.000000 1.000000
vt 0.000000 1.000000
vt 0.000000 0.000000
vt 1.000000 0.000000
vt 1.000000 1.000000
vt 0.000000 1.000000
vt 0.000000 0.000000
vt 1.000000 0.000000
vt 1.000000 1.000000
vt 0.000000 1.000000
vt 0.000000 0.000000
vt 1.000000 0.000000
vt 0.000000 0.000000
vt 1.000000 0.000000
vt 1.000000 1.000000
vt 0.000000 1.000000
vt 1.000000 1.000000
vt 0.000000 1.000000
vt 0.000000 0.000000
vt 1.000000 0.000000
vt 1.000000 1.000000
vt 0.000000 1.000000
vn -1.0000 0.0000 0.0000
vn 0.0000 -0.0000 1.0000
vn 0.0000 1.0000 0.0000
vn 0.0000 -1.0000 0.0000
vn 1.0000 0.0000 0.0000
vn 0.0000 0.0000 -1.0000
g Plane.001_Plane.002_plant
usemtl plant
s off
f 1/1/1 3/2/1 4/3/1 2/4/1
f 5/5/2 6/6/2 8/7/2 7/8/2
g Plane.001_Plane.002_sand
usemtl sand
f 9/9/3 13/10/3 15/11/3 11/12/3
f 14/13/4 10/14/4 12/15/4 16/16/4
f 12/17/2 11/18/2 15/11/2 16/16/2
f 10/19/5 9/20/5 11/21/5 12/22/5
f 14/13/6 13/10/6 9/23/6 10/24/6
f 16/25/1 15/26/1 13/27/1 14/28/1
